<?xml version="1.0" standalone="no"?>
<!DOCTYPE svg PUBLIC "-//W3C//DTD SVG 20010904//EN"
 "http://www.w3.org/TR/2001/REC-SVG-20010904/DTD/svg10.dtd">
<svg version="1.0" xmlns="http://www.w3.org/2000/svg"
 width="240.000000pt" height="110.000000pt" viewBox="0 0 240.000000 110.000000"
 preserveAspectRatio="xMidYMid meet">
<metadata>
Created by potrace 1.15, written by Peter Selinger 2001-2017
</metadata>
<g transform="translate(0.000000,110.000000) scale(0.100000,-0.100000)"
fill="#000000" stroke="none">
<path d="M580 938 c-19 -13 -44 -43 -57 -67 -23 -43 -23 -50 -23 -329 0 -193
4 -298 12 -325 30 -100 128 -143 218 -96 67 35 95 97 95 209 l0 85 -60 0 -60
0 -5 -70 c-3 -38 -9 -76 -13 -82 -12 -19 -45 -15 -57 6 -17 32 -13 474 4 516
8 19 19 35 25 35 20 0 41 -46 41 -91 l0 -47 45 -6 c27 -5 53 -3 66 4 20 11 21
18 17 84 -8 130 -66 196 -169 196 -31 0 -57 -7 -79 -22z"/>
<path d="M1695 936 c-74 -33 -112 -128 -103 -256 6 -80 30 -122 135 -231 71
-75 73 -78 73 -127 0 -51 -20 -87 -44 -79 -20 6 -36 51 -36 100 l0 47 -65 0
-65 0 0 -68 c0 -128 67 -214 168 -215 114 -2 174 71 175 211 1 47 -4 87 -12
102 -20 37 -89 127 -143 188 -47 53 -48 55 -48 122 0 49 4 71 16 80 27 23 47
-11 52 -85 l4 -65 64 0 64 0 0 68 c0 89 -14 136 -54 180 -30 32 -39 36 -92 39
-36 2 -71 -2 -89 -11z"/>
<path d="M2085 936 c-74 -33 -112 -128 -103 -256 6 -80 30 -122 135 -231 71
-75 73 -78 73 -127 0 -51 -20 -87 -44 -79 -20 6 -36 51 -36 100 l0 47 -65 0
-65 0 0 -68 c0 -128 67 -214 168 -215 114 -2 174 71 175 211 1 47 -4 87 -12
102 -20 37 -89 127 -143 188 -47 53 -48 55 -48 122 0 49 4 71 16 80 27 23 47
-11 52 -85 l4 -66 62 3 61 3 3 62 c4 82 -12 137 -52 181 -30 32 -39 36 -92 39
-36 2 -71 -2 -89 -11z"/>
<path d="M100 526 l0 -416 25 -6 c14 -3 41 -3 60 0 l35 7 0 104 c0 57 3 106 8
109 4 2 20 -44 36 -104 27 -104 29 -108 58 -114 53 -11 108 -7 114 8 3 7 -29
114 -71 238 l-76 225 35 89 c19 49 50 127 70 172 20 46 36 88 36 93 0 5 -31 9
-70 9 l-69 0 -11 -42 c-51 -206 -63 -220 -58 -65 l3 102 -62 3 -63 3 0 -415z"/>
<path d="M877 934 c-9 -9 -9 -699 -1 -772 8 -59 21 -68 84 -54 l35 8 9 172 9
172 32 0 c21 0 35 -6 39 -16 3 -9 6 -87 6 -174 0 -155 0 -158 23 -164 41 -10
97 5 102 28 3 11 4 197 3 411 l-3 390 -65 0 -65 0 -1 -135 c-1 -74 -2 -143 -3
-152 -1 -14 -10 -18 -36 -18 l-34 0 -3 153 -3 152 -60 3 c-34 2 -64 0 -68 -4z"/>
<path d="M1277 933 c-4 -3 -7 -188 -7 -410 l0 -403 26 -11 c15 -5 77 -8 138
-7 l111 3 3 73 3 72 -70 0 c-68 0 -71 1 -77 26 -10 40 2 155 17 165 8 5 33 9
56 9 l41 0 7 74 c4 41 4 79 1 85 -4 6 -32 11 -62 11 l-54 0 0 90 0 89 68 3 67
3 3 68 3 67 -134 0 c-73 0 -137 -3 -140 -7z"/>
</g>
</svg>
